<?xml version="1.0" encoding="UTF-8" standalone="no"?>
<!DOCTYPE svg PUBLIC "-//W3C//DTD SVG 1.1//EN" "http://www.w3.org/Graphics/SVG/1.1/DTD/svg11.dtd">
<svg width="256px" height="252px" version="1.1" xmlns="http://www.w3.org/2000/svg" xmlns:xlink="http://www.w3.org/1999/xlink" xml:space="preserve" xmlns:serif="http://www.serif.com/" style="fill-rule:evenodd;clip-rule:evenodd;stroke-linejoin:round;stroke-miterlimit:2;">
    <g>
        <path d="M142.999,241.931L241.002,143.551L233.505,136.024L241.002,128.494L128,15.057L14.999,128.494L22.496,136.024L14.999,143.551L113.002,241.931L142.999,241.931Z" style="fill:rgb(184,213,147);fill-rule:nonzero;"/>
        <path d="M50.369,179.056C53.406,178.276 64.596,175.867 74.758,179.657C86.647,184.093 88.534,188.289 88.534,188.289L95.046,200.158L96.566,201.554L110.003,218.417L111.414,240.337L113.002,241.93L142.999,241.93L148.758,236.149L149.023,216.554L157.469,203.108L199.719,184.992L204.964,179.727L222.576,162.046L228.139,156.463C226.934,155.287 221.183,150.901 204.179,153.283C184.645,156.02 160.677,168.948 154.072,169.703C147.467,170.457 147.042,166.73 144.871,167.579L142.701,168.429C142.701,168.429 141.333,153.425 143.361,149.179C145.39,144.932 157.7,139.425 160.484,139.237L156.192,129.195C156.192,129.195 147.773,111.811 141.686,104.497C135.6,97.184 129.466,88.833 128.334,88.927C127.201,89.021 117.34,103.365 110.452,113.509C103.563,123.653 92.852,139.129 95.07,139.695C97.288,140.262 101.44,137.337 109.083,140.545C116.727,143.753 114.839,165.645 114.839,165.645C114.839,165.645 83.275,147.386 59.495,146.82C38.784,146.327 25.522,150.054 22.444,151.024L50.369,179.056ZM129.232,33.773C129.232,33.773 123.57,38.586 123.759,43.21C123.947,47.834 129.986,55.666 134.232,54.533C138.479,53.401 142.348,48.588 140.178,42.266C138.007,35.944 129.232,33.773 129.232,33.773Z" style="fill:rgb(247,232,198);"/>
        <path d="M117.877,241.93C118.209,234.281 120.361,184.938 121.231,170.502C122.174,154.837 122.646,143.23 122.646,143.23C122.646,143.23 116.229,137.569 110.096,136.342C103.963,135.116 101.886,135.493 101.886,135.493C101.886,135.493 127.27,91.52 128.591,91.708C129.912,91.897 154.352,132.756 153.22,134.643C152.088,136.531 135.857,137.286 135.951,145.495C136.046,153.705 140.764,217.306 141.991,227.025C142.947,234.6 143.459,239.496 143.639,241.288L142.999,241.93L117.877,241.93ZM88.534,188.289C88.534,188.289 91.648,199.66 97.451,204.048C103.255,208.436 101.415,213.154 104.293,214.664C107.17,216.174 108.161,220.184 106.321,226.459C105.229,230.185 104.674,232.242 104.403,233.299L111.647,240.57C112.285,235.744 114.706,216.489 112.974,214.428C110.992,212.069 107.501,214.24 106.227,211.55C104.953,208.861 105.189,205.369 99.622,202.302C94.054,199.236 88.534,188.289 88.534,188.289ZM45.986,174.656C49.201,173.844 61.739,171.159 74.191,174.984C88.628,179.418 90.61,188.477 98.064,192.912C105.519,197.348 110.426,201.405 110.426,201.405C110.426,201.405 109.01,207.728 112.596,208.294C116.182,208.86 117.598,206.218 117.598,200.461C117.598,194.705 117.787,173.851 117.787,173.851C117.787,173.851 105.047,170.359 93.441,162.15C81.834,153.94 68.34,151.109 52.487,153.374C39.386,155.246 30.873,156.526 28.312,156.914L33.32,161.942C36.684,161.253 49.942,158.542 56.827,157.149C64.754,155.544 73.237,157.844 73.237,157.844L36.605,165.239L45.986,174.656ZM148.453,236.455C147.409,233.532 143.131,220.747 146.381,216.08C150.062,210.796 153.27,209.852 154.685,205.606C156.101,201.36 158.082,200.133 165.065,199C172.048,197.868 183.088,189.564 191.015,186.261C196.919,183.802 199.511,183.998 200.449,184.258L192.862,191.875C190.675,192.061 183.559,193.07 174.124,198.529C162.706,205.134 157.422,203.813 156.667,207.116C155.912,210.418 150.344,217.59 150.344,217.59L153.462,231.427L148.453,236.455ZM149.873,200.982C149.873,200.982 152.515,196.83 168.368,191.074C184.221,185.318 193.752,179.279 198.47,178.995C201.989,178.784 203.886,179.628 204.622,180.07L223.432,161.188C221.137,160.398 209.389,156.82 195.356,160.878C179.692,165.407 156.667,177.863 150.627,175.409C144.588,172.956 142.701,171.635 141.946,174.183C141.191,176.731 141.663,210.136 144.022,210.324C146.381,210.513 149.024,211.079 149.873,200.982ZM119.063,40.706C119.063,40.706 117.6,57.881 131.33,57.928C145.06,57.975 145.391,43.585 143.22,38.3C141.05,33.016 136.567,28.486 129.867,30.043C123.167,31.6 120.526,34.148 119.063,40.706ZM128.64,38.631C128.64,38.631 125.243,40.943 126.281,45.802C127.319,50.662 134.491,51.322 136.426,47.407C138.36,43.49 136.426,38.584 133.595,37.923C130.764,37.262 128.64,38.631 128.64,38.631ZM143.363,166.162C143.363,166.162 141.947,148.138 150.628,144.741C159.31,141.344 163.746,143.138 161.386,137.192C159.027,131.248 155.818,128.511 155.818,128.511C155.818,128.511 160.348,137.948 158.178,138.419C156.007,138.891 143.645,139.269 142.325,145.78C141.004,152.291 143.363,166.162 143.363,166.162ZM109.066,128.907L127.457,97.888L121.987,130.445L109.066,128.907ZM137.398,130.397C137.778,130.114 145.766,129.029 145.766,129.029L135.006,109.164L137.398,130.397ZM125.336,231.177L127.572,167.319C127.572,167.319 130.67,170.454 130.858,168.992C131.047,167.529 127.036,162.858 127.036,162.858L127.367,157.527C127.367,157.527 131.982,157.478 131.939,163.943C131.896,170.407 125.336,231.177 125.336,231.177Z" style="fill:rgb(101,73,69);"/>
        <path d="M35.053,163.682C36.921,163.899 40.87,164.173 44.842,163.283C50.315,162.056 62.488,157.527 66.922,157.527C70.584,157.527 73.216,157.142 79.224,159.873L71.528,167.435C70.361,167.17 69.461,166.758 69.376,166.114C69.14,164.321 76.171,159.886 73.717,159.414C71.264,158.942 65.413,165.972 62.063,165.453C58.713,164.934 52.061,163.377 45.691,164.462C41.271,165.215 38.627,165.784 37.423,166.061L35.053,163.682ZM130.288,99.918L136.752,130.539L138.262,130.209L135.006,109.165L130.288,99.918ZM127.457,97.889L125.004,137.805C125.004,137.805 121.701,133.747 115.568,132.615C109.434,131.483 107.782,131.766 107.782,131.766C107.782,131.766 108.915,126.623 113.586,125.963C118.257,125.302 119.483,126.246 119.483,126.246L127.457,97.889ZM125.311,241.931C125.227,237.361 125.049,217.952 127.693,200.934C130.712,181.495 131.939,163.944 131.939,163.944C131.939,163.944 135.147,203.482 134.392,220.467C133.816,233.434 133.075,239.694 132.756,241.931L125.311,241.931ZM146.376,178.758L147.132,184.704C147.132,184.704 149.302,185.458 157.228,184.231C160.355,183.748 163.556,182.94 166.899,181.851L164.709,177.671C154.263,180.604 151.966,179.371 146.376,178.758ZM171.699,180.138C173.33,179.51 174.999,178.824 176.713,178.085L173.819,174.766C172.29,175.294 170.519,175.889 169.207,176.31L171.699,180.138ZM179.457,176.875C189.459,172.157 201.202,167.152 201.202,167.152C201.202,167.152 192.854,168.405 176.629,173.815L179.457,176.875ZM81.218,160.832C90.465,165.928 98.157,172.814 103.347,174.607C108.537,176.4 108.065,177.438 106.744,178.475C105.423,179.514 99.667,178.664 91.74,175.456C83.814,172.248 83.908,170.266 85.041,168.379C86.173,166.491 86.267,164.887 83.059,166.303C80.306,167.518 78.734,167.828 77.688,167.893L81.218,160.832Z" style="fill:rgb(108,155,74);"/>
        <path d="M128,0L256,128.494L248.501,136.022L256,143.551L147.967,252L108.033,252L0,143.551L7.499,136.022L0,128.494L128,0ZM142.999,241.931L241.002,143.551L233.505,136.024L241.002,128.494L128,15.057L14.999,128.494L22.496,136.024L14.999,143.551L113.002,241.931L142.999,241.931Z" style="fill:rgb(153,153,153);fill-rule:nonzero;"/>
    </g>
</svg>
