<?xml version="1.0" encoding="UTF-8" standalone="no"?>
<!DOCTYPE svg PUBLIC "-//W3C//DTD SVG 1.1//EN" "http://www.w3.org/Graphics/SVG/1.1/DTD/svg11.dtd">
<svg width="256px" height="252px" version="1.1" xmlns="http://www.w3.org/2000/svg" xmlns:xlink="http://www.w3.org/1999/xlink" xml:space="preserve" xmlns:serif="http://www.serif.com/" style="fill-rule:evenodd;clip-rule:evenodd;stroke-linejoin:round;stroke-miterlimit:2;">
    <g>
        <path d="M142.999,241.931L241.002,143.551L233.505,136.024L241.002,128.494L128,15.057L14.999,128.494L22.496,136.024L14.999,143.551L113.002,241.931L142.999,241.931Z" style="fill:rgb(229,199,198);fill-rule:nonzero;"/>
        <path d="M64.663,193.406L129.661,227.243L192.193,184.597C193.748,179.478 205.968,156.251 205.899,154.992C205.168,141.577 188.87,129.632 193.409,125.094C195.924,122.579 208.365,120.508 208.365,117.633C208.365,114.758 203.573,107.451 199.74,105.654C195.907,103.857 196.386,103.857 196.745,99.784C197.105,95.711 199.74,88.763 196.146,87.086C192.553,85.409 177.459,71.992 155.776,69.357C134.094,66.721 108.698,72.112 96.479,77.742C84.261,83.373 74.558,86.847 81.506,87.805C88.453,88.763 105.344,88.763 95.521,91.878C85.698,94.992 79.948,97.029 55.151,100.982L39.999,103.398L14.999,128.494L22.496,136.024L14.999,143.551L64.663,193.406Z" style="fill:rgb(247,232,198);"/>
        <path d="M189.046,174.261C190.225,174.196 203.537,173.519 211.002,173.665L142.999,241.93L113.002,241.93L76.163,204.949C76.792,203.669 94.307,201.876 96.127,200.834C98.691,202.268 100.886,203.253 101.626,202.924C103.783,201.966 106.179,201.367 106.179,201.367L126.663,216.82L131.575,214.544L106.418,197.174C106.418,197.174 107.281,196.635 107.342,195.629C111.297,193.895 111.016,181.408 115.71,179.61C122.159,177.138 133.852,185.376 141.098,183.304L155.211,197.696L160.43,196.261L145.643,182.06C149.108,181.154 146.215,170.494 152.03,169.349C157.846,168.205 170.377,176.92 175.007,176.123L179.908,181.81L185.208,180.714L180.033,175.293C182.076,174.972 181.867,169.237 183.097,169.081C186.707,168.622 189.046,174.261 189.046,174.261ZM119.984,144.705L197.494,147.151L191.114,129.97L177.339,123.08L202.593,116.736L189.436,105.772L189.916,89.96L139.965,71.293L111,85.709L109.932,93.917L93.181,102.593L48.361,168.774L73.506,199.419L119.984,144.705Z" style="fill:rgb(101,73,69);"/>
        <path d="M80.515,209.32C82.702,208.102 93.175,202.526 96.127,200.836C91.225,198.092 84.975,193.702 84.975,193.702C84.975,193.702 88.689,192.145 91.325,191.426C93.96,190.707 90.366,188.311 90.366,188.311L92.043,186.514C92.043,186.514 92.882,187.113 94.199,187.832C95.517,188.551 95.876,185.436 96.236,182.921C96.596,180.405 104.981,191.665 106.658,193.822C107.21,194.532 107.372,195.138 107.342,195.631C116.73,191.514 128.579,186.887 141.098,183.306L130.608,172.609C130.608,172.609 128.146,172.805 125.86,173.394C123.576,173.983 110.959,161.55 110.959,161.55C110.959,161.55 114.879,160.627 117.597,160.352C120.315,160.079 117.165,157.123 117.165,157.123L119.115,155.627C119.115,155.627 119.844,156.355 121.025,157.282C122.206,158.209 123.074,155.195 123.844,152.774C124.613,150.352 131.027,162.841 132.325,165.244C133.624,167.647 131.535,168.513 131.535,168.513L145.643,182.062C149.108,181.156 165.137,177.166 175.007,176.125L167.724,167.675C167.724,167.675 165.254,167.712 162.936,168.153C160.618,168.594 148.826,155.376 148.826,155.376C148.826,155.376 152.798,154.707 155.527,154.608C158.257,154.509 155.304,151.357 155.304,151.357L157.347,149.989C157.347,149.989 158.027,150.763 159.146,151.764C160.265,152.764 161.325,149.813 162.248,147.446C163.172,145.079 168.769,157.954 169.911,160.436C171.052,162.917 168.913,163.647 168.913,163.647L180.033,175.295C188.073,174.032 189.046,174.263 189.046,174.263C189.046,174.263 202.822,154.737 202.822,152.581C202.822,150.424 190.963,126.646 189.645,125.987C188.328,125.328 179.583,125.028 183.656,123.591C187.729,122.154 205.159,118.679 205.218,117.661C205.278,116.643 201.026,109.216 199.109,108.138C197.192,107.059 192.82,104.904 193.599,101.429C194.377,97.955 195.575,91.546 194.617,90.109C193.658,88.671 176.049,76.812 162.932,73.577C149.815,70.343 136.038,70.163 119.507,73.278C102.975,76.392 88.121,84.359 89.798,84.658C91.475,84.958 110.163,89.509 108.905,91.546C107.647,93.583 100.16,96.039 77.04,99.992C59.436,103.002 44.126,104.866 37.822,105.584L28.885,114.555C37.802,114.098 62.25,112.892 70.032,112.989C79.616,113.109 76.262,113.229 68.595,114.966C62.146,116.427 28.661,123.185 18.186,125.295L14.999,128.495L18.071,131.581C26.074,129.9 51.8,124.652 62.905,124.25C76.142,123.77 75.423,123.351 63.384,126.766C47.727,130.275 18.219,140.319 18.219,140.319L14.999,143.552L25.86,154.455C37.193,151.482 67.186,142.051 66.079,143.058C64.928,144.104 38.552,157.214 31.897,160.515L80.515,209.32ZM77.19,154.05C77.19,154.05 89.708,151.954 89.768,150.216C89.828,148.479 89.228,144.287 90.427,138.237C91.625,132.188 92.044,130.451 90.966,133.206C89.888,135.961 86.893,146.263 80.724,147.581C74.554,148.899 72.997,148.24 72.638,149.438C72.278,150.636 69.404,161.897 62.156,165.37C54.908,168.844 53.111,168.485 53.59,170.761C54.07,173.037 54.31,172.977 57.544,172.738C60.778,172.498 61.557,173.336 63.114,171.839C64.671,170.342 72.098,157.584 77.19,154.05ZM68.475,192.054C68.475,192.054 77.459,189.298 78.658,186.304C79.856,183.309 86.085,163.304 88.481,162.824C90.877,162.345 106.569,157.674 112.559,146.413C118.548,135.152 121.783,130.241 121.783,131.918C121.783,133.595 120.345,139.585 120.345,139.585C120.345,139.585 129.569,136.23 136.757,138.267C143.944,140.304 152.09,140.543 151.85,138.866C151.611,137.189 149.095,130.72 148.257,125.329C147.418,119.939 148.616,118.621 150.173,124.611C151.731,130.601 158.319,139.944 159.277,139.944C160.236,139.944 177.127,135.152 179.523,136.111C181.918,137.069 192.76,145.575 193.779,143.778C194.797,141.981 193.839,136.111 190.664,134.194C187.489,132.278 179.942,128.744 176.468,128.983C172.995,129.223 162.752,131.978 161.734,131.439C160.716,130.9 159.757,127.546 160.835,124.97C161.914,122.395 161.914,122.035 161.914,124.072C161.914,126.108 161.853,128.325 163.111,128.205C164.369,128.085 165.328,127.726 165.328,127.726C165.328,127.726 172.215,117.184 173.294,111.314C174.372,105.444 174.013,102.569 174.013,102.569C174.013,102.569 175.331,100.593 179.224,100.473C183.117,100.353 185.093,100.952 185.692,98.796C186.291,96.639 186.591,93.045 186.591,93.045C186.591,93.045 182.398,89.631 180.062,87.954C177.726,86.277 177.367,86.936 175.151,85.199C172.934,83.462 169.041,86.756 167.424,86.457C165.807,86.157 148.257,75.615 143.106,74.777C137.955,73.938 118.908,80.946 121.184,82.084C123.46,83.222 134.841,87.894 141.429,88.134C148.018,88.374 164.189,88.493 163.95,89.991C163.711,91.488 161.374,92.566 160.176,96.04C158.979,99.514 158.499,100.113 158.499,100.113C158.499,100.113 147.119,100.532 143.406,105.264C139.692,109.996 133.942,114.548 122.262,114.369C110.582,114.189 107.108,113.111 101.897,116.765C96.686,120.418 96.866,121.317 95.249,121.257C93.632,121.197 90.461,117.627 91.535,112.452C91.535,112.452 89.319,112.931 88.57,116.105C87.822,119.28 88.72,120.927 88.72,120.927C88.72,120.927 87.361,119.889 86.354,115.597C86.354,115.597 78.718,129.934 94.739,130.451C94.739,130.451 92.523,137.698 92.583,145.485C92.643,153.271 95.518,154.649 88.39,154.769C81.263,154.889 81.382,155.607 81.263,156.805C81.143,158.003 81.323,170.94 75.453,176.87C69.583,182.8 64.372,186.754 64.791,187.712C65.21,188.67 67.666,192.204 68.475,192.054ZM173.203,116.855C173.203,116.855 182.727,110.806 187.578,111.404C192.43,112.003 194.946,111.704 195.904,112.482C196.862,113.261 200.277,116.316 194.407,117.095C188.537,117.873 183.805,116.316 183.805,116.316C183.805,116.316 182.128,118.832 176.378,122.006C170.628,125.181 169.669,127.277 170.987,123.204C172.305,119.131 173.203,116.855 173.203,116.855Z" style="fill:rgb(203,150,152);"/>
        <path d="M128,0L256,128.494L248.501,136.022L256,143.551L147.967,252L108.033,252L0,143.551L7.499,136.022L0,128.494L128,0ZM142.999,241.931L241.002,143.551L233.505,136.024L241.002,128.494L128,15.057L14.999,128.494L22.496,136.024L14.999,143.551L113.002,241.931L142.999,241.931Z" style="fill:rgb(153,153,153);fill-rule:nonzero;"/>
    </g>
</svg>
