<?xml version="1.0" encoding="UTF-8" standalone="no"?>
<!DOCTYPE svg PUBLIC "-//W3C//DTD SVG 1.1//EN" "http://www.w3.org/Graphics/SVG/1.1/DTD/svg11.dtd">
<svg width="256px" height="252px" version="1.1" xmlns="http://www.w3.org/2000/svg" xmlns:xlink="http://www.w3.org/1999/xlink" xml:space="preserve" xmlns:serif="http://www.serif.com/" style="fill-rule:evenodd;clip-rule:evenodd;stroke-linejoin:round;stroke-miterlimit:2;">
    <g>
        <path d="M128,15.06L241,128.5L233.5,136.02L241,143.55L143,241.93L113,241.93L15,143.55L22.5,136.02L15,128.5L128,15.06Z" style="fill:rgb(177,202,191);fill-rule:nonzero;"/>
        <g transform="matrix(1,0,0,1,18.695,28.515)">
            <path d="M83.37,12.57C90,23.88 107.64,45.91 110.92,43.39C115.02,40.23 117.94,27.29 120.55,31.24C123.15,35.18 137.11,43.39 139.24,38.89C140.61,36.01 144.22,29.14 146.83,24.21L162.96,40.41C160.41,49.95 157.42,64.13 160.15,66.42C162.9,68.73 177.86,66.94 187.77,65.31L198.03,75.61C198.03,75.61 211.13,108.51 221.1,116.25L212.14,125.23C204,126.98 190.56,126.49 169.61,120C160.51,124.46 143.38,136.33 147.62,148.18C151.37,158.66 164.23,163.62 172.27,165.27L124.3,213.42L94.31,213.42L79.27,198.32C82.48,188.06 85.3,172.22 79.34,163.31L59.45,177.79C59.71,165.56 62.26,139.23 70.39,131.72C78.52,124.2 73.19,116.65 69.51,113.82C59.95,109.51 44.42,135.43 30.08,148.94L21.58,140.41C34.58,118.99 43.39,87.83 34.84,83.74C42.15,77.04 53.07,62.31 42.25,53.86L83.37,12.57Z" style="fill:rgb(243,228,196);fill-rule:nonzero;"/>
        </g>
        <g transform="matrix(1,0,0,1,18.695,28.515)">
            <path d="M53.95,96.03C61.41,108.55 69.75,100.17 79.81,103.12C80.5,106.75 81.85,114.4 81.72,115.91C80.84,126.41 74.55,133.97 67.02,143.03L66.99,143.06C61.1,154.82 71.14,161.42 62.03,171.95C66.39,168.89 70.77,156.86 69.5,149.31C68.63,142.39 76.89,140.99 78.06,137.46C81.14,141.35 90.11,149.82 101.37,152.54L103.09,159.55C96.44,161.05 85.22,166.87 93.6,178.24L90.91,183.21C94.5,189.93 100.77,204.9 98.55,213.42L94.31,213.42L86.66,205.74C88.11,200.85 90.53,192.54 90.35,192.51C90.12,192.46 86.07,190.72 85.65,190.67L85.65,204.72L79.87,198.92C81.27,187.25 82.6,168.62 79.36,164.16C76.51,164.66 69.52,169 63.23,182.22L55.91,174.87C57.99,169.27 61.3,157.7 58.21,147.71L76.07,120.96C80.47,108.09 68.85,106.89 55.91,107.87C49.84,120.95 37.2,137.46 27.89,140.47C33.96,128.89 47.63,121.71 42.78,108.81L53.95,96.03ZM83.42,149.37C82.72,153.08 81.33,160.52 81.36,160.67C81.39,160.81 86.34,154.27 88.81,150.99L83.42,149.37ZM133.88,176.88C137.6,179.17 146.04,183.55 152.88,184.73L124.3,213.42L114.29,213.42C114,209.33 112.94,196.48 112.38,189.65C124.36,192.12 125.27,181.16 133.88,176.88ZM117.7,195.15L123.23,211.38L123.23,194.41L117.7,195.15ZM138.07,120.6C138.7,109 148.17,108.82 150.78,109.26C160.07,110.76 155.95,113.12 176.83,117.46C188.13,118.96 204.44,120.51 212.92,124.45L207.91,129.49C203.18,128.28 187.04,123.72 178.34,121.23C174.42,120.03 166.53,118.86 166.37,123.86C166.21,128.85 157.9,131.56 153.76,132.29L149.78,149.15L175.42,162.1L170.93,166.61L139.6,163.07C134,150.15 124.57,148.75 121.76,154.74C121.25,151.71 128.9,138.23 132.79,131.87C137.59,124.61 150.69,126.32 158.82,121.83L138.07,120.6ZM130.72,142.13L144.61,147.16C140.61,141.47 135.39,139.43 133.28,139.12L130.72,142.13ZM44.49,51.6L53.91,57.65C51.59,65.02 50.37,79.94 37.11,82.67L48.18,80.75C46.01,82.94 42.41,88.33 45.41,92.31C39.79,102.52 35.54,126.34 31,133.23C29.44,135.66 26.4,140.19 24.16,143L17.42,136.24C22.93,131.43 29.72,123.43 28.72,116.01C27.49,106.86 34.59,96.03 38.29,91.76C30.14,88.54 20.45,91.24 1.98,94.28L9.35,86.88C16.82,84.79 49.99,73.38 42.33,68.51C38.69,65.99 35.88,63.76 34,62.14L44.49,51.6ZM190.49,113.95C180.79,102.71 194.6,106.13 199.83,109.82C204.17,112.89 213.6,118.74 218.36,119L213.79,123.58C205.94,120.03 191.52,115.02 190.49,113.95ZM192.45,70.01L222.31,99.98L214.81,107.51L222.31,115.03L219.71,117.64C212.64,114.55 202.36,103.34 192.8,99.29C189.61,94.71 190.4,86.56 179.87,87.8C176.32,88.21 169.98,83.03 166,80.12C175.46,73.12 184,76.17 192.45,70.01ZM102.06,102.43C102.22,102.27 105.42,92.87 117.75,96.58C124.19,97.98 121.76,107.38 118.68,107.72C112.61,110.27 100.89,109.4 102.06,102.43ZM130.83,8.15L129.13,38.73L141.26,18.62L148.09,25.47C146.72,36.38 141.95,59.69 139.98,64.5C139.77,59.86 134.72,58.4 133.58,57.13L133.28,60.44L121.58,52.72L132.93,76.18C132.22,82.08 136.04,83.37 138.03,83.28C146.26,83.28 146.22,85.65 154.78,90.7C135.59,92.2 133.41,91.07 125.98,84.99C119.39,79.87 120.87,72.31 122.43,69.18C115.66,58.94 117.95,41.57 119.95,34.17L112.57,49.83C103.79,48.2 97.85,50.92 95.98,52.49L92.1,43.65L92.86,55.01C88.11,58.11 85.71,63.07 85.1,65.17L78.56,61.57C84.68,66.33 80.96,83.51 93.2,85.29C83.05,87.38 73.05,84.42 69.32,82.67C74.5,62.83 71.57,47.25 90.74,35.49C88.56,28.9 85.57,33.44 79.18,33.44C81.27,29.64 82.72,20.81 84.99,15.36C83.37,15.83 80.74,16.52 78.96,17L88.92,7L99.23,31.01C105.34,30.47 110.33,36.84 112.06,40.09L124.27,1.56L130.83,8.15ZM98.71,45.77C98.87,45.77 103.37,44.32 103.86,44.45L98.84,33.94L98.71,45.77ZM166.65,44.11L163.38,59.02C170.12,57.78 176.68,58.4 182.17,59.68L189.13,66.67L165.56,75.76C158.01,78.96 154.78,69.84 148.85,68.32C154.86,58.04 158.74,43.52 159.17,36.6L166.65,44.11ZM150.79,28.18L156.73,34.15C155.67,37.25 155.7,51.4 146.95,54.86L150.79,28.18ZM60.58,35.45C61.91,41.72 56.85,46.97 56.51,51.53L47.29,48.8L60.58,35.45Z" style="fill:rgb(113,169,196);"/>
        </g>
        <g transform="matrix(1,0,0,1,18.695,28.515)">
            <path d="M94.45,180.48C99.84,181.27 109.07,187.1 109.68,199.59C110,206.16 111.23,211.02 111.99,213.42L101.07,213.42C102.41,201.73 97.29,186.72 94.45,180.48ZM76.72,157.54C84.78,166.15 89.49,165.67 80.7,199.75L78.42,197.47L80.36,167.33L76.06,166.15L64.48,183.47L62.81,181.8L76.72,157.54ZM122.05,159.74C127.81,148.86 141.66,163.36 136.49,168.17C135.19,169.08 124.93,180.81 121.77,183.73C119.21,186.11 115.69,185.69 114.37,185.33C105.89,182.24 97.24,180.66 94.63,176.2C91.11,170.17 98.72,161.75 103.44,161.4C107.26,161.4 110.41,166.12 115.86,170.54C119.71,169.94 120.69,166.09 122.05,159.74ZM106.86,169.47C106.86,169.47 104.32,166.48 101.6,168C98.42,170.86 100.11,172.64 100.83,174.24L100.83,174.25L100.84,174.25C101.87,175.72 107.89,182.32 116.21,181.63C116.21,174.98 112.87,175.33 106.86,169.47ZM130.56,160.46C125.19,160.46 124.2,163.39 123.31,166.25C122.23,167.77 120.96,170.36 123.39,173.59C132.95,173.99 133.95,161.23 130.56,160.46ZM137.02,168.77C143.29,167.93 160.25,171.85 166.03,171.52L156.48,181.12C151.53,180.38 141,176.94 136.14,175.23C133.19,173.93 135.5,170.38 137.02,168.77ZM57.37,113.08C58.55,111.51 61.56,110.06 67.23,110.85C70.16,111.43 76.97,112.53 74.42,118.91L76.62,120.44C75.68,129.74 63.83,138.18 61.87,145.64C60.71,157.03 64.2,161.61 57.81,176.78L54.78,173.74C60.15,162.72 57.8,153.17 54.75,145.64C64.86,136.04 70.74,124.42 73.35,121C71.02,115.78 65.04,111.79 59.26,119.79C53.39,128.39 37.77,143.24 31.54,150.4L27.81,146.66C37.81,137.3 53.8,119.23 57.37,113.08ZM108,148.32C111.09,147.98 113.14,145.87 116.5,148.55C113.89,153.33 121.62,161.02 117.58,167.77C108,166.04 107.19,152.19 108,148.32ZM163.25,128.11C164.65,118.94 168.79,116.48 176.66,118.94C189.9,124.43 189.36,118.94 210.14,127.25L204.52,132.88C191.76,126.64 176.34,122.39 168.32,122.11L167.24,127.69L180.51,132.26C174.52,132.26 164.4,131.08 154.25,133.64L151.46,148.5C158.69,152.33 172.19,159.42 176.22,161.3L174.13,163.39C164.37,160.39 148,153.18 146.19,148.5C144.88,146.45 147.9,144.03 147.9,141.08L147.9,141.06C148.21,136.03 148.52,131.06 154.25,130.13C155.78,129.94 159.73,129.27 163.25,128.11ZM83.03,138.65C81.52,133.38 84.98,133.08 85.81,134.52C87.86,138.06 92.89,139.49 95.14,139.76C100.29,140.06 105.2,137.5 107.28,140.81C108.34,143.7 103.75,147.25 101.68,150.05C93.99,147.21 84.76,143.94 83.03,138.65ZM129.49,129.22C132.06,131.99 125.59,142.73 113.01,141.35C112.24,140.69 112.32,136.73 111.68,135.47C121.19,136.12 123.11,130.84 129.49,129.22ZM82.58,118.43C85.04,122.47 92.48,130.37 102.65,129.66C104.14,129.56 109.26,134.61 104.58,137.83C104.31,137.83 91.82,140.6 86.73,132.04C81.64,123.49 80.88,125.4 82.58,118.43ZM26.16,86.7C27.99,85.43 32.69,83.96 36.89,88.22C42.14,93.55 41.15,94.42 39.33,96.81C33,102.19 29.64,110.24 30.04,118.02C30.33,121.65 31.42,123.99 18.54,137.36L15.19,133.99L28.48,119.38C25.52,109.62 30.26,100.34 36.77,92.62C25.91,89.3 11.85,96.76 0,96.27L2.52,93.74C9.49,91.95 22.1,88.53 26.16,86.7ZM131.43,120.01C130.67,123 127.35,129.34 120.14,130.84C116.52,132.14 112.85,132.09 113.32,128C116.83,127.24 125.38,124.57 131.43,120.01ZM86.32,107.5C87.69,112.02 93.84,120.92 107.52,120.44C108.44,123.91 108.49,128.14 102.65,127.58C93.16,126.84 84.34,119.8 82.71,108.86C83.17,108.19 83.66,104.65 86.32,107.5ZM118.55,88.16C132.82,86.03 136.28,104.71 130.64,108.23L134.28,108.5C134.91,110.47 136.29,114.27 129.49,118.7C124.7,122.16 118.46,125.27 115.36,122.48C114.4,121.94 113.24,120.34 116.3,118.31C120.12,115.77 125.41,114.11 127.45,111.94C124.89,112.78 119.72,113.11 119.57,107.72C122.14,108.64 127.18,108.68 126.74,101.45C126.92,99.14 125.23,94.56 117.02,94.76L118.55,88.16ZM68.7,86.56C74.17,90.57 82.53,91.12 86.03,90.89C93.69,89.67 95.62,86.94 99.6,90.61C103.98,94.64 99.11,98.02 98.36,101.45C96.68,109.04 105,113.03 109.69,112.21C113.32,111.57 113.32,114.06 113.32,114.06C108.23,121.01 87.25,117.08 91.22,100.48C87.23,99.48 69.84,101.33 61.07,97.85C57.66,96.49 57.73,93.6 58.35,93.12C60.65,91.39 63.36,82.85 68.7,86.56ZM65.31,91.39C63.57,94.01 66.03,94.86 66.74,94.94C69.53,95.23 82.19,96.22 88.12,96.67L88.32,94.27L65.31,91.39ZM134.28,92.42C153.1,97.86 165.18,97.52 181.53,107.46C189.72,113.14 177.96,118.94 174.07,115.69C158.32,106.15 148.87,108.95 139.87,106.69C135.28,103.89 137.68,95.92 134.28,92.42ZM140.29,98.67L141.97,103.53C154.85,103.92 165.96,106.2 170.35,108.52L173.26,107.6C170.35,101.17 152.88,100.41 140.29,98.67ZM142.42,82.45C134.28,75.67 144.41,70.73 149.55,73.55C154.89,76.26 166.02,88.02 178.51,90.03C189.59,90.49 187.84,105.91 177.67,102.72C177.32,102.6 151.19,83.85 147.22,82.61C145.57,82.21 143.07,82.9 142.42,82.45ZM152.82,80.36C158.72,84.73 163.27,89.17 167.24,92.45C171.19,95.73 174.66,97.78 178.18,97.46C181.31,94.2 177.43,92.37 176.05,91.76C172.02,92.45 170.85,89.51 152.82,80.36ZM64.11,40.05C67.8,33.66 73.59,39.83 72.62,47.43C69.58,50.49 66.22,62.73 65.71,69.32C63.3,78.35 60.44,93.56 53.1,93.41C51.13,93.13 47.53,91.37 48.96,86.56C50.38,81.75 59.65,53.55 64.11,40.05ZM56.84,74.21L59.88,73.64C62.54,67.72 68.45,50.03 66.53,41.53L56.84,74.21ZM95.3,57.23C104.8,49.97 116.67,54.57 118.76,64.25C119.95,71 116.34,73.58 116.67,77C116.94,79.85 120.83,81.62 120.64,83.39C120.36,86.07 110.02,90.73 104.88,92.73C102.8,84.59 95.78,85.06 89.3,79.62C81.61,71.3 90.1,61.22 95.3,57.23ZM111.23,62.1C107.39,57.83 91.97,57.63 92.37,73.27L92.38,73.29C93.27,77.26 96.45,78.57 99.51,79.96C101.05,80.66 105.05,82.7 106.18,87.3L113.52,83.63C111.86,81.63 110.81,80.43 110.86,78.68C110.86,75.89 113.09,72.04 114.36,69.72C107.86,76.57 103.83,67.66 106,64.98C107.08,63.63 108.5,61.63 111.23,62.1ZM35.3,60.83C45.69,68.26 48.6,68.06 45.1,73.17C41.01,81.07 21.76,81.6 8.59,87.64L9.62,86.61C17.88,81.78 24.84,78.07 31.24,76.58C39.47,75.42 39.15,73.17 42.89,71.33L32.21,63.93L35.3,60.83ZM131.02,64.51C134.1,63.72 135.26,67.29 136.94,69.74C138.28,71.7 137.03,72.99 136.23,73.39C137.58,74.6 139.81,77.44 137.93,79.05C135.58,81.07 134.06,78.44 133.02,77.31C131.72,75.1 133.91,72.97 134.31,72.28C130.18,68.36 130.4,65.47 131.02,64.51ZM147.44,63.26C148.83,65.23 146.38,70.04 145.04,69.9C143.99,69.79 141.53,71.08 140.38,71.77C137.07,70.78 137.59,66.66 137.07,63.88L139.65,63.74C141.22,63.88 142.13,67.75 142.82,69.11C142.59,64.16 145.81,63.15 147.44,63.26ZM127.25,57.63C128.64,58.36 131.45,59.97 131.59,60.55C131.78,61.27 129.85,63.87 129.6,63.57C129.36,63.26 124.66,59.41 127.25,57.63ZM134.88,60.26C135.42,60.16 136.31,59.03 138.79,62.3L135.76,63.03C135.27,62.7 134.41,61.67 134.88,60.26ZM143.73,63.03C143.19,57.72 144.15,55.79 146.59,56.27C146.97,56.49 147.99,61.7 147.44,61.82C146.89,61.93 144.22,63.03 143.73,63.03ZM167.34,44.8L165.04,57.38C168.18,55.85 173.5,54.26 177.88,55.38L184.1,61.62L159.44,61.62L165.3,42.75L167.34,44.8ZM122.71,0L126,3.31C121.43,17.37 112.32,45.25 110.8,49.33C107.44,41.22 107.82,35.35 103.45,32.99C100.75,31.91 99.49,33.96 98.03,33.26C95.53,32.06 90.27,12.95 88.41,7.51L90.06,5.86L100.62,30.05L106.37,28.09L110.8,36.12C117.13,29.91 120.41,9.17 122.71,0ZM132.32,9.64C131.66,18.17 130.49,33.68 130.49,35.56L140.19,17.55L142.05,19.41L127.77,45.83C125.83,36.4 128.27,16.74 130,7.32L132.32,9.64ZM80.65,36.25C82.71,36.09 83.43,35.97 83,39.15C82.72,41.21 72.93,43.36 73.86,37.84C73.86,36.64 78.58,36.42 80.65,36.25ZM84.17,35.64C88.69,31.33 89.47,35.31 89.52,35.46C89.57,35.61 85.66,38.05 84.99,37.84C84.45,37.66 84.22,36.3 84.17,35.64ZM74.39,25.44C73.7,27.65 72.31,32.16 72.25,32.49C73.86,31.24 74.44,28.2 76.93,29.08C77.48,31.05 75.19,38.23 71.8,37.07L71.41,34.38L69.35,35.84C69.33,35.58 66.69,33.48 70.95,27.58L74.39,25.44ZM79.06,22.74C83.59,22.74 79.21,27.28 78.61,27.28C77.97,27.17 76.66,26.84 76.64,26.43C76.6,25.92 78.61,23.09 79.06,22.74ZM76.66,19.32C77.55,19.44 78.74,19.76 79.06,19.81C79.5,19.89 77.3,23.52 76.03,23.87C73.92,24.44 73.91,22.53 73.92,22.06L76.66,19.32ZM97.11,68.56C93.07,69.24 95.21,74.44 95.34,74.68C95.48,77.36 102.23,79.34 103.8,74.46C105.37,69.59 101.14,67.88 97.11,68.56Z" style="fill:rgb(103,77,74);fill-rule:nonzero;"/>
        </g>
        <path d="M128,0L0,128.49L7.5,136.02L0,143.55L108.03,252L147.97,252L256,143.55L248.5,136.02L256,128.5L128,0ZM128,15.06L241,128.5L233.5,136.02L241,143.55L143,241.93L113,241.93L15,143.55L22.5,136.02L15,128.5L128,15.06Z" style="fill:rgb(153,153,153);fill-rule:nonzero;"/>
    </g>
</svg>
